# Blender v2.83.5 OBJ File: 'Arrows.blend'
# www.blender.org
mtllib Arrow_19.mtl
o Arrow_19
v -0.115760 -0.598695 -0.425990
v -0.115760 -0.598696 0.425989
v -0.114293 0.597892 0.425990
v -0.114293 0.597892 -0.425989
v -0.602934 -1.085868 -0.425990
v -0.602934 -1.085869 0.425989
v -1.200493 -0.488309 0.425989
v -1.200493 -0.488309 -0.425990
v -0.601466 1.085065 -0.425989
v -0.601466 1.085065 0.425990
v -1.200493 0.486037 0.425989
v -1.200493 0.486038 -0.425989
v 0.184444 0.299155 -0.425989
v 0.184444 -0.298491 -0.425989
v 0.276052 0.162054 -0.425989
v 0.308221 0.000332 -0.425989
v 0.276052 -0.161389 -0.425989
v 0.184444 -0.298491 0.425989
v 0.184444 0.299155 0.425990
v 0.276052 -0.161390 0.425989
v 0.308221 0.000332 0.425989
v 0.276052 0.162054 0.425989
v -1.957477 -1.842766 0.425988
v -1.359831 -1.842766 0.425988
v -1.820375 -1.934374 0.425988
v -1.658654 -1.966543 0.425988
v -1.496932 -1.934374 0.425988
v -1.359831 -1.842765 -0.425990
v -1.957477 -1.842765 -0.425990
v -1.496932 -1.934373 -0.425990
v -1.658654 -1.966542 -0.425990
v -1.820375 -1.934373 -0.425990
v -1.957390 -1.245206 0.425989
v -2.048998 -1.382307 0.425988
v -2.081167 -1.544029 0.425988
v -2.048998 -1.705751 0.425988
v -1.957390 -1.245206 -0.425990
v -2.048998 -1.705751 -0.425990
v -2.081167 -1.544029 -0.425990
v -2.048998 -1.382307 -0.425990
v -1.956700 1.841271 0.425990
v -1.957391 1.242934 0.425990
v -2.048998 1.703479 0.425990
v -2.081167 1.541757 0.425990
v -2.048999 1.380036 0.425990
v -1.957391 1.242935 -0.425989
v -1.956700 1.841272 -0.425988
v -2.048999 1.380036 -0.425989
v -2.081167 1.541758 -0.425989
v -2.048998 1.703480 -0.425988
v -1.358363 1.841962 0.425990
v -1.495464 1.933570 0.425990
v -1.657186 1.965738 0.425990
v -1.818908 1.933570 0.425990
v -1.358363 1.841962 -0.425988
v -1.818908 1.933570 -0.425988
v -1.657186 1.965739 -0.425988
v -1.495464 1.933571 -0.425988
v -0.812080 -0.099896 -0.425989
v -0.812080 0.097625 -0.425989
v -0.614560 0.097625 -0.425989
v -0.614560 -0.099896 -0.425989
v -0.789885 -0.070970 -0.425989
v -0.775932 -0.037284 -0.425989
v -0.771173 -0.001135 -0.425989
v -0.775932 0.035013 -0.425989
v -0.789885 0.068699 -0.425989
v -0.812080 0.097624 0.425989
v -0.812080 -0.099896 0.425989
v -0.614560 -0.099896 0.425989
v -0.614560 0.097624 0.425989
v -0.789885 0.068698 0.425989
v -0.775932 0.035013 0.425989
v -0.771173 -0.001136 0.425989
v -0.775932 -0.037285 0.425989
v -0.789885 -0.070970 0.425989
v 1.951140 -0.598695 -0.425990
v 1.951140 -0.598696 0.425989
v 1.952608 0.597892 0.425990
v 1.952608 0.597892 -0.425989
v 1.463967 -1.085868 -0.425990
v 1.463967 -1.085869 0.425989
v 0.866407 -0.488309 0.425989
v 0.866407 -0.488309 -0.425990
v 1.465435 1.085065 -0.425989
v 1.465435 1.085065 0.425990
v 0.866407 0.486037 0.425989
v 0.866407 0.486038 -0.425989
v 2.251345 0.299155 -0.425989
v 2.251345 -0.298491 -0.425989
v 2.342953 0.162054 -0.425989
v 2.375121 0.000332 -0.425989
v 2.342953 -0.161389 -0.425989
v 2.251344 -0.298491 0.425989
v 2.251345 0.299155 0.425990
v 2.342953 -0.161390 0.425989
v 2.375121 0.000332 0.425989
v 2.342953 0.162054 0.425989
v 0.109424 -1.842766 0.425988
v 0.707070 -1.842766 0.425988
v 0.246525 -1.934374 0.425988
v 0.408247 -1.966543 0.425988
v 0.569969 -1.934374 0.425988
v 0.707070 -1.842765 -0.425990
v 0.109424 -1.842765 -0.425990
v 0.569969 -1.934373 -0.425990
v 0.408247 -1.966542 -0.425990
v 0.246525 -1.934373 -0.425990
v 0.109510 -1.245206 0.425989
v 0.017902 -1.382307 0.425988
v -0.014266 -1.544029 0.425988
v 0.017902 -1.705751 0.425988
v 0.109510 -1.245206 -0.425990
v 0.017902 -1.705751 -0.425990
v -0.014266 -1.544029 -0.425990
v 0.017902 -1.382307 -0.425990
v 0.110201 1.841271 0.425990
v 0.109510 1.242934 0.425990
v 0.017902 1.703479 0.425990
v -0.014266 1.541757 0.425990
v 0.017902 1.380036 0.425990
v 0.109510 1.242935 -0.425989
v 0.110201 1.841272 -0.425988
v 0.017902 1.380036 -0.425989
v -0.014266 1.541758 -0.425989
v 0.017902 1.703480 -0.425988
v 0.708538 1.841962 0.425990
v 0.571437 1.933570 0.425990
v 0.409715 1.965738 0.425990
v 0.247993 1.933570 0.425990
v 0.708538 1.841962 -0.425988
v 0.247993 1.933570 -0.425988
v 0.409715 1.965739 -0.425988
v 0.571437 1.933571 -0.425988
v 1.254820 -0.099896 -0.425989
v 1.254820 0.097625 -0.425989
v 1.452341 0.097625 -0.425989
v 1.452341 -0.099896 -0.425989
v 1.277016 -0.070970 -0.425989
v 1.290969 -0.037284 -0.425989
v 1.295728 -0.001135 -0.425989
v 1.290969 0.035013 -0.425989
v 1.277016 0.068699 -0.425989
v 1.254820 0.097624 0.425989
v 1.254820 -0.099896 0.425989
v 1.452341 -0.099896 0.425989
v 1.452341 0.097624 0.425989
v 1.277016 0.068698 0.425989
v 1.290969 0.035013 0.425989
v 1.295728 -0.001136 0.425989
v 1.290969 -0.037285 0.425989
v 1.277016 -0.070970 0.425989
vt 0.908637 0.819097
vt 0.908637 0.832367
vt 0.892233 0.832367
vt 0.892233 0.819097
vt 0.549686 0.649958
vt 0.552375 0.647268
vt 0.565957 0.647268
vt 0.565957 0.655445
vt 0.565338 0.658560
vt 0.563574 0.661201
vt 0.560934 0.662965
vt 0.557820 0.663585
vt 0.549686 0.663585
vt 0.536421 0.663585
vt 0.515811 0.663585
vt 0.512697 0.662965
vt 0.510057 0.661201
vt 0.508293 0.658560
vt 0.507674 0.655408
vt 0.508293 0.652293
vt 0.510057 0.649652
vt 0.512697 0.647888
vt 0.515811 0.647268
vt 0.536421 0.647268
vt 0.609718 0.545147
vt 0.609718 0.558774
vt 0.607029 0.561464
vt 0.596452 0.561464
vt 0.596452 0.545147
vt 0.893716 0.099365
vt 0.893716 0.107502
vt 0.877312 0.107502
vt 0.877312 0.099365
vt 0.546997 0.647268
vt 0.381628 0.824591
vt 0.381628 0.844200
vt 0.365224 0.844200
vt 0.365224 0.824591
vt 0.877312 0.086095
vt 0.877312 0.065477
vt 0.893716 0.065478
vt 0.893716 0.086095
vt 0.575843 0.561464
vt 0.572729 0.560845
vt 0.570089 0.559080
vt 0.568325 0.556440
vt 0.567706 0.553287
vt 0.568325 0.550172
vt 0.570089 0.547532
vt 0.572729 0.545767
vt 0.575843 0.545147
vt 0.609718 0.574734
vt 0.625989 0.574734
vt 0.625989 0.595352
vt 0.625370 0.598466
vt 0.623606 0.601107
vt 0.620966 0.602872
vt 0.617852 0.603491
vt 0.614741 0.602872
vt 0.612101 0.601107
vt 0.610337 0.598466
vt 0.609718 0.595352
vt 0.365224 0.807871
vt 0.365224 0.801505
vt 0.381628 0.801505
vt 0.381628 0.807871
vt 0.549686 0.633998
vt 0.549686 0.613381
vt 0.550305 0.610266
vt 0.552069 0.607625
vt 0.554709 0.605861
vt 0.557820 0.605241
vt 0.560934 0.605861
vt 0.563574 0.607625
vt 0.565338 0.610266
vt 0.565957 0.613381
vt 0.565957 0.633998
vt 0.549686 0.644578
vt 0.381628 0.811139
vt 0.365224 0.811139
vt 0.609718 0.564155
vt 0.612407 0.561464
vt 0.625989 0.561464
vt 0.365224 0.814528
vt 0.381628 0.814528
vt 0.893716 0.110617
vt 0.877312 0.110617
vt 0.893716 0.113257
vt 0.877312 0.113257
vt 0.908637 0.846300
vt 0.892233 0.846300
vt 0.892233 0.843660
vt 0.908637 0.843660
vt 0.892233 0.840545
vt 0.908637 0.840545
vt 0.381628 0.791251
vt 0.365224 0.791251
vt 0.365224 0.788480
vt 0.381628 0.788480
vt 0.365224 0.786513
vt 0.381628 0.786513
vt 0.892233 0.792725
vt 0.908637 0.792725
vt 0.908637 0.795365
vt 0.892233 0.795365
vt 0.908637 0.798480
vt 0.892233 0.798480
vt 0.381628 0.794403
vt 0.365224 0.794403
vt 0.381628 0.797460
vt 0.365224 0.797460
vt 0.381628 0.799953
vt 0.365224 0.799953
vt 0.381628 0.854455
vt 0.365224 0.854455
vt 0.365224 0.852904
vt 0.381628 0.852904
vt 0.365224 0.850411
vt 0.381628 0.850411
vt 0.365224 0.847354
vt 0.381628 0.847354
vt 0.877312 0.062363
vt 0.893716 0.062363
vt 0.877312 0.059722
vt 0.893716 0.059722
vt 0.877312 0.057957
vt 0.893716 0.057957
vt 0.877312 0.057338
vt 0.893716 0.057338
vt 0.609626 0.563458
vt 0.609358 0.562809
vt 0.608930 0.562252
vt 0.608373 0.561825
vt 0.607725 0.561556
vt 0.547693 0.647177
vt 0.548342 0.646908
vt 0.548898 0.646480
vt 0.549326 0.645923
vt 0.549594 0.645274
vt 0.365224 0.813837
vt 0.381628 0.813837
vt 0.365224 0.813137
vt 0.381628 0.813137
vt 0.365224 0.812475
vt 0.381628 0.812475
vt 0.365224 0.811897
vt 0.381628 0.811897
vt 0.365224 0.811441
vt 0.381628 0.811441
vt 0.617852 0.545147
vt 0.620966 0.545767
vt 0.623606 0.547532
vt 0.625370 0.550172
vt 0.625989 0.553287
vt 0.891741 0.876695
vt 0.891741 0.889965
vt 0.875337 0.889965
vt 0.875337 0.876695
vt 0.131099 0.624657
vt 0.133788 0.621967
vt 0.147370 0.621967
vt 0.147370 0.630144
vt 0.146751 0.633259
vt 0.144987 0.635900
vt 0.142347 0.637664
vt 0.139234 0.638284
vt 0.131099 0.638284
vt 0.117834 0.638284
vt 0.097224 0.638284
vt 0.094110 0.637664
vt 0.091470 0.635900
vt 0.089707 0.633259
vt 0.089087 0.630107
vt 0.089707 0.626992
vt 0.091470 0.624351
vt 0.094110 0.622587
vt 0.097224 0.621967
vt 0.117834 0.621967
vt 0.549686 0.545147
vt 0.549686 0.558774
vt 0.546997 0.561464
vt 0.536421 0.561464
vt 0.536421 0.545147
vt 0.875337 0.806653
vt 0.875337 0.798515
vt 0.891741 0.798515
vt 0.891741 0.806653
vt 0.128410 0.621967
vt 0.382120 0.816390
vt 0.382120 0.796780
vt 0.398524 0.796780
vt 0.398524 0.816390
vt 0.891741 0.819923
vt 0.891741 0.840540
vt 0.875337 0.840540
vt 0.875337 0.819923
vt 0.515811 0.561464
vt 0.512697 0.560845
vt 0.510057 0.559080
vt 0.508293 0.556440
vt 0.507674 0.553287
vt 0.508293 0.550172
vt 0.510057 0.547532
vt 0.512697 0.545767
vt 0.515811 0.545147
vt 0.549686 0.574734
vt 0.565957 0.574734
vt 0.565957 0.595352
vt 0.565338 0.598466
vt 0.563574 0.601107
vt 0.560934 0.602872
vt 0.557821 0.603491
vt 0.554709 0.602872
vt 0.552069 0.601107
vt 0.550305 0.598466
vt 0.549686 0.595352
vt 0.398524 0.833109
vt 0.398524 0.839476
vt 0.382120 0.839476
vt 0.382120 0.833109
vt 0.131099 0.608697
vt 0.131099 0.588080
vt 0.131719 0.584965
vt 0.133482 0.582324
vt 0.136122 0.580560
vt 0.139234 0.579940
vt 0.142347 0.580560
vt 0.144987 0.582324
vt 0.146751 0.584965
vt 0.147370 0.588080
vt 0.147370 0.608697
vt 0.131099 0.619277
vt 0.382120 0.829842
vt 0.398524 0.829842
vt 0.549686 0.564155
vt 0.552375 0.561464
vt 0.565957 0.561464
vt 0.398524 0.826453
vt 0.382120 0.826453
vt 0.875337 0.795401
vt 0.891741 0.795401
vt 0.875337 0.792760
vt 0.891741 0.792760
vt 0.891741 0.903898
vt 0.875337 0.903898
vt 0.875337 0.901257
vt 0.891741 0.901257
vt 0.875337 0.898142
vt 0.891741 0.898142
vt 0.382120 0.849729
vt 0.398524 0.849729
vt 0.398524 0.852500
vt 0.382120 0.852500
vt 0.398524 0.854467
vt 0.382120 0.854467
vt 0.875337 0.850322
vt 0.891741 0.850322
vt 0.891741 0.852963
vt 0.875337 0.852963
vt 0.891741 0.856078
vt 0.875337 0.856078
vt 0.382120 0.846577
vt 0.398524 0.846577
vt 0.382120 0.843521
vt 0.398524 0.843521
vt 0.382120 0.841027
vt 0.398524 0.841027
vt 0.382120 0.786525
vt 0.398524 0.786525
vt 0.398524 0.788076
vt 0.382120 0.788076
vt 0.398524 0.790570
vt 0.382120 0.790570
vt 0.398524 0.793626
vt 0.382120 0.793626
vt 0.891741 0.843655
vt 0.875337 0.843655
vt 0.891741 0.846295
vt 0.875337 0.846295
vt 0.891741 0.848060
vt 0.875337 0.848060
vt 0.891741 0.848680
vt 0.875337 0.848680
vt 0.549594 0.563458
vt 0.549326 0.562809
vt 0.548898 0.562252
vt 0.548342 0.561825
vt 0.547693 0.561556
vt 0.129106 0.621876
vt 0.129755 0.621607
vt 0.130312 0.621179
vt 0.130739 0.620622
vt 0.131008 0.619973
vt 0.398524 0.827143
vt 0.382120 0.827143
vt 0.398524 0.827843
vt 0.382120 0.827843
vt 0.398524 0.828505
vt 0.382120 0.828505
vt 0.398524 0.829084
vt 0.382120 0.829084
vt 0.398524 0.829540
vt 0.382120 0.829540
vt 0.557820 0.545147
vt 0.560934 0.545767
vt 0.563574 0.547532
vt 0.565338 0.550172
vt 0.565957 0.553287
vn 0.7071 -0.7071 -0.0000
vn -0.0000 -0.0000 1.0000
vn 0.0000 0.0000 -1.0000
vn 0.7071 0.7071 0.0000
vn 0.7730 0.6344 0.0000
vn -0.7071 -0.7071 -0.0000
vn -0.7730 -0.6344 -0.0000
vn 0.6344 0.7730 0.0000
vn -0.7071 0.7071 0.0000
vn -0.7730 0.6344 0.0000
vn -0.7518 0.6593 0.0000
vn -0.7518 -0.6593 -0.0000
vn 0.9239 0.3827 0.0000
vn 1.0000 -0.0000 0.0000
vn 0.9239 -0.3827 -0.0000
vn 0.7730 -0.6344 -0.0000
vn -0.7072 -0.7071 -0.0000
vn -0.3827 -0.9239 -0.0000
vn -0.0000 -1.0000 -0.0000
vn 0.3827 -0.9239 -0.0000
vn 0.6344 -0.7730 -0.0000
vn -0.9239 -0.3826 -0.0000
vn -1.0000 -0.0000 -0.0000
vn -0.9239 0.3827 0.0000
vn -0.9237 0.3832 0.0000
vn -0.9239 -0.3827 -0.0000
vn 0.3827 0.9239 0.0000
vn -0.0000 1.0000 0.0000
vn -0.3832 0.9237 0.0000
vn -0.8660 -0.5000 -0.0000
vn -0.9659 -0.2588 -0.0000
vn -0.9659 0.2588 0.0000
vn -0.8660 0.5000 0.0000
usemtl Material.001
s 1
f 5/1/1 1/2/1 2/3/1 6/4/1
f 71/5/2 70/6/2 2/7/2 18/8/2 20/9/2 21/10/2 22/11/2 19/12/2 3/13/2
f 10/14/2 51/15/2 52/16/2 53/17/2 54/18/2 41/19/2 43/20/2 44/21/2 45/22/2 42/23/2 11/24/2
f 4/25/3 61/26/3 60/27/3 12/28/3 9/29/3
f 3/30/4 19/31/5 13/32/5 4/33/4
f 68/34/2 71/5/2 3/13/2 10/14/2 11/24/2
f 11/35/6 42/36/7 46/37/7 12/38/6
f 9/39/4 55/40/8 51/41/8 10/42/4
f 9/29/3 12/28/3 46/43/3 48/44/3 49/45/3 50/46/3 47/47/3 56/48/3 57/49/3 58/50/3 55/51/3
f 8/52/3 5/53/3 28/54/3 30/55/3 31/56/3 32/57/3 29/58/3 38/59/3 39/60/3 40/61/3 37/62/3
f 8/63/9 37/64/10 33/65/10 7/66/9
f 7/67/2 33/68/2 34/69/2 35/70/2 36/71/2 23/72/2 25/73/2 26/74/2 27/75/2 24/76/2 6/77/2
f 6/77/2 2/7/2 70/6/2 69/78/2 7/67/2
f 7/66/9 69/79/11 59/80/11 8/63/9
f 3/30/4 4/33/4 9/39/4 10/42/4
f 8/52/3 59/81/3 62/82/3 1/83/3 5/53/3
f 12/38/6 60/84/12 68/85/12 11/35/6
f 13/32/5 19/31/5 22/86/13 15/87/13
f 15/87/13 22/86/13 21/88/14 16/89/14
f 16/90/14 21/91/14 20/92/15 17/93/15
f 17/93/15 20/92/15 18/94/16 14/95/16
f 23/96/17 29/97/17 32/98/18 25/99/18
f 25/99/18 32/98/18 31/100/19 26/101/19
f 26/102/19 31/103/19 30/104/20 27/105/20
f 27/105/20 30/104/20 28/106/21 24/107/21
f 29/97/17 23/96/17 36/108/22 38/109/22
f 38/109/22 36/108/22 35/110/23 39/111/23
f 39/111/23 35/110/23 34/112/24 40/113/24
f 40/113/24 34/112/24 33/65/10 37/64/10
f 41/114/9 47/115/9 50/116/25 43/117/25
f 43/117/25 50/116/25 49/118/23 44/119/23
f 44/119/23 49/118/23 48/120/26 45/121/26
f 45/121/26 48/120/26 46/37/7 42/36/7
f 51/41/8 55/40/8 58/122/27 52/123/27
f 52/123/27 58/122/27 57/124/28 53/125/28
f 53/125/28 57/124/28 56/126/29 54/127/29
f 54/127/29 56/126/29 47/128/9 41/129/9
f 2/3/1 1/2/1 14/95/16 18/94/16
f 6/4/1 24/107/21 28/106/21 5/1/1
f 59/81/3 63/130/3 64/131/3 65/132/3 66/133/3 67/134/3 60/27/3 61/26/3 62/82/3
f 68/34/2 72/135/2 73/136/2 74/137/2 75/138/2 76/139/2 69/78/2 70/6/2 71/5/2
f 68/85/12 60/84/12 67/140/30 72/141/30
f 72/141/30 67/140/30 66/142/31 73/143/31
f 73/143/31 66/142/31 65/144/23 74/145/23
f 74/145/23 65/144/23 64/146/32 75/147/32
f 75/147/32 64/146/32 63/148/33 76/149/33
f 76/149/33 63/148/33 59/80/11 69/79/11
f 1/83/3 62/82/3 61/26/3 4/25/3 13/150/3 15/151/3 16/152/3 17/153/3 14/154/3
f 81/155/1 77/156/1 78/157/1 82/158/1
f 147/159/2 146/160/2 78/161/2 94/162/2 96/163/2 97/164/2 98/165/2 95/166/2 79/167/2
f 86/168/2 127/169/2 128/170/2 129/171/2 130/172/2 117/173/2 119/174/2 120/175/2 121/176/2 118/177/2 87/178/2
f 80/179/3 137/180/3 136/181/3 88/182/3 85/183/3
f 79/184/4 95/185/5 89/186/5 80/187/4
f 144/188/2 147/159/2 79/167/2 86/168/2 87/178/2
f 87/189/6 118/190/7 122/191/7 88/192/6
f 85/193/4 131/194/8 127/195/8 86/196/4
f 85/183/3 88/182/3 122/197/3 124/198/3 125/199/3 126/200/3 123/201/3 132/202/3 133/203/3 134/204/3 131/205/3
f 84/206/3 81/207/3 104/208/3 106/209/3 107/210/3 108/211/3 105/212/3 114/213/3 115/214/3 116/215/3 113/216/3
f 84/217/9 113/218/10 109/219/10 83/220/9
f 83/221/2 109/222/2 110/223/2 111/224/2 112/225/2 99/226/2 101/227/2 102/228/2 103/229/2 100/230/2 82/231/2
f 82/231/2 78/161/2 146/160/2 145/232/2 83/221/2
f 83/220/9 145/233/11 135/234/11 84/217/9
f 79/184/4 80/187/4 85/193/4 86/196/4
f 84/206/3 135/235/3 138/236/3 77/237/3 81/207/3
f 88/192/6 136/238/12 144/239/12 87/189/6
f 89/186/5 95/185/5 98/240/13 91/241/13
f 91/241/13 98/240/13 97/242/14 92/243/14
f 92/244/14 97/245/14 96/246/15 93/247/15
f 93/247/15 96/246/15 94/248/16 90/249/16
f 99/250/17 105/251/17 108/252/18 101/253/18
f 101/253/18 108/252/18 107/254/19 102/255/19
f 102/256/19 107/257/19 106/258/20 103/259/20
f 103/259/20 106/258/20 104/260/21 100/261/21
f 105/251/17 99/250/17 112/262/22 114/263/22
f 114/263/22 112/262/22 111/264/23 115/265/23
f 115/265/23 111/264/23 110/266/24 116/267/24
f 116/267/24 110/266/24 109/219/10 113/218/10
f 117/268/9 123/269/9 126/270/25 119/271/25
f 119/271/25 126/270/25 125/272/23 120/273/23
f 120/273/23 125/272/23 124/274/26 121/275/26
f 121/275/26 124/274/26 122/191/7 118/190/7
f 127/195/8 131/194/8 134/276/27 128/277/27
f 128/277/27 134/276/27 133/278/28 129/279/28
f 129/279/28 133/278/28 132/280/29 130/281/29
f 130/281/29 132/280/29 123/282/9 117/283/9
f 78/157/1 77/156/1 90/249/16 94/248/16
f 82/158/1 100/261/21 104/260/21 81/155/1
f 135/235/3 139/284/3 140/285/3 141/286/3 142/287/3 143/288/3 136/181/3 137/180/3 138/236/3
f 144/188/2 148/289/2 149/290/2 150/291/2 151/292/2 152/293/2 145/232/2 146/160/2 147/159/2
f 144/239/12 136/238/12 143/294/30 148/295/30
f 148/295/30 143/294/30 142/296/31 149/297/31
f 149/297/31 142/296/31 141/298/23 150/299/23
f 150/299/23 141/298/23 140/300/32 151/301/32
f 151/301/32 140/300/32 139/302/33 152/303/33
f 152/303/33 139/302/33 135/234/11 145/233/11
f 77/237/3 138/236/3 137/180/3 80/179/3 89/304/3 91/305/3 92/306/3 93/307/3 90/308/3
